<?xml version="1.0" standalone="no"?>
<!DOCTYPE svg PUBLIC "-//W3C//DTD SVG 20010904//EN"
 "http://www.w3.org/TR/2001/REC-SVG-20010904/DTD/svg10.dtd">
<svg version="1.0" xmlns="http://www.w3.org/2000/svg"
 width="500.000000pt" height="500.000000pt" viewBox="0 0 500.000000 500.000000"
 preserveAspectRatio="xMidYMid meet">
<metadata>
Created by potrace 1.14, written by Peter Selinger 2001-2017
</metadata>
<g transform="translate(0.000000,500.000000) scale(0.100000,-0.100000)"
fill="#000000" stroke="none">
<path d="M1193 4835 c-61 -17 -144 -57 -192 -94 -103 -78 -146 -253 -117 -477
19 -138 21 -331 5 -424 -7 -42 -11 -260 -11 -610 -1 -478 1 -553 16 -610 29
-112 110 -170 235 -170 80 0 121 14 222 76 404 245 748 533 984 824 100 124
165 191 165 172 0 -21 -36 -84 -82 -143 -245 -318 -425 -485 -793 -734 -113
-77 -332 -241 -342 -257 -4 -8 9 -9 41 -5 124 17 1005 493 1204 651 48 38 132
100 186 139 61 43 177 146 299 264 110 107 201 192 204 190 14 -15 -60 -121
-154 -217 -236 -245 -509 -445 -997 -733 -44 -26 -180 -96 -301 -156 -121 -60
-229 -116 -240 -125 -19 -15 -19 -15 8 -16 33 0 163 50 457 175 243 103 261
112 455 223 616 352 962 625 1179 933 183 259 254 401 316 629 36 133 42 183
29 254 -14 85 -48 134 -125 185 -108 71 -106 71 -889 70 -379 0 -712 -4 -740
-9 -107 -20 -443 -23 -592 -6 -173 20 -359 20 -430 1z m1587 -241 c14 -4 198
-10 410 -13 413 -6 416 -7 464 -60 25 -28 33 -124 16 -200 -30 -136 -110 -249
-322 -456 -195 -192 -317 -286 -633 -487 -151 -96 -170 -106 -173 -88 -5 32
33 149 89 270 41 90 50 118 51 171 2 75 -6 105 -32 119 -17 9 -30 -4 -105 -97
-271 -339 -868 -848 -1175 -1003 -84 -42 -186 -81 -194 -73 -3 4 -6 72 -6 152
0 80 -5 175 -11 211 -17 97 -18 945 -2 1090 7 63 13 148 13 189 0 97 24 149
94 200 70 52 93 58 231 66 66 4 161 10 210 14 113 9 1041 4 1075 -5z m500
-918 c0 -16 -21 -36 -37 -36 -16 0 -17 32 -2 47 13 13 39 6 39 -11z"/>
<path d="M1535 4318 c0 -171 -3 -199 -43 -419 -23 -130 -42 -242 -42 -249 0
-45 213 311 276 460 55 131 82 271 69 351 l-7 39 -126 0 -127 0 0 -182z"/>
<path d="M2139 4490 c-13 -7 -19 -32 -24 -92 -15 -179 -112 -481 -224 -693
-66 -126 -214 -361 -289 -458 -91 -119 -125 -168 -120 -173 18 -17 217 178
507 498 248 275 322 417 371 708 11 69 22 137 25 151 2 14 -3 36 -11 48 -14
19 -24 21 -117 21 -56 0 -109 -5 -118 -10z"/>
<path d="M2686 4448 c-3 -29 -6 -105 -6 -168 0 -80 -6 -140 -20 -199 -32 -132
-4 -125 77 20 75 132 114 238 120 326 l6 73 -85 0 -85 0 -7 -52z"/>
<path d="M3091 4338 c-44 -313 -53 -343 -196 -579 -58 -95 -103 -175 -100
-177 7 -7 80 54 137 116 88 96 147 181 198 287 52 108 170 447 170 489 l0 26
-93 0 -94 0 -22 -162z"/>
<path d="M1425 3620 c-8 -13 4 -32 16 -25 12 8 12 35 0 35 -6 0 -13 -4 -16
-10z"/>
<path d="M1217 2373 c-13 -12 -7 -23 12 -23 10 0 24 7 31 15 10 13 9 15 -12
15 -14 0 -28 -3 -31 -7z"/>
<path d="M1455 2369 c-4 -6 -4 -13 -1 -16 8 -8 36 5 36 17 0 13 -27 13 -35 -1z"/>
<path d="M962 2273 c-62 -4 -64 -5 -79 -41 -12 -29 -13 -50 -7 -92 l9 -55 269
-3 c305 -3 316 -1 316 64 0 55 -24 92 -68 103 -91 24 -264 34 -440 24z"/>
<path d="M964 1925 c-26 -39 -44 -111 -65 -260 -18 -124 -20 -194 -21 -600 -1
-440 0 -464 20 -542 12 -45 34 -108 48 -138 34 -70 133 -174 199 -206 50 -24
53 -24 385 -27 371 -4 417 2 504 59 76 51 132 160 143 280 11 111 -46 357
-138 607 -130 349 -240 525 -468 745 -105 101 -151 129 -151 92 0 -22 75 -160
200 -365 149 -246 217 -392 235 -505 6 -37 6 -38 -7 -20 -8 11 -42 72 -75 136
-77 147 -243 410 -336 532 -76 100 -170 206 -195 221 -31 18 -3 -66 53 -161
58 -97 98 -199 140 -362 43 -160 30 -162 -38 -4 -74 169 -265 468 -334 523
-36 28 -79 26 -99 -5z m154 -463 c19 -46 129 -509 157 -655 22 -115 26 -160
24 -261 -5 -154 -16 -176 -87 -176 -59 0 -76 12 -101 71 -48 116 -56 185 -56
514 0 171 4 342 8 380 4 39 10 94 13 123 4 42 8 51 19 42 7 -6 18 -23 23 -38z
m556 -447 c83 -125 182 -371 193 -481 9 -86 -51 -164 -127 -164 -73 0 -101 70
-130 335 -20 187 -25 339 -13 384 l6 24 19 -24 c11 -13 34 -46 52 -74z m220
-18 c8 -13 7 -20 -4 -27 -16 -10 -30 4 -30 33 0 22 19 18 34 -6z"/>
</g>
</svg>
